<mxfile host="app.diagrams.net" modified="2024-05-16T20:00:57.327Z" agent="Mozilla/5.0 (Macintosh; Intel Mac OS X 10_15_7) AppleWebKit/605.1.15 (KHTML, like Gecko) Version/17.2.1 Safari/605.1.15" version="24.4.3" etag="2Gsgja8P9Tvc1Q7ZYJ6C" type="github">
  <diagram name="PÃ¡gina-1" id="Q_qOd0z0o7dUv9DyZkGG">
    <mxGraphModel>
      <root>
        <mxCell id="0" />
        <mxCell id="1" parent="0" />
      </root>
    </mxGraphModel>
  </diagram>
</mxfile>
